<svg width="66" height="79" viewBox="0 0 66 79" fill="none" xmlns="http://www.w3.org/2000/svg">
<path d="M48.4336 54.1377C51.5197 51.4627 54.226 47.6856 55.8537 43.6026C56.8966 40.9813 57.2247 37.9774 56.8031 34.9123C56.1437 30.0984 53.4329 26.6238 50.8143 23.267C48.8599 20.762 47.0126 18.3961 46.0836 15.5789L45.916 15.0761C45.3637 13.4202 44.7416 11.5449 44.9809 10.2205C45.2251 8.88145 44.3626 7.58754 43.0674 7.24314C41.7476 6.90704 40.3958 7.64684 39.9694 8.94235L25.5239 52.8321C23.8718 50.9016 21.5829 49.2966 18.7998 48.3806C12.0119 46.1465 5.03078 48.746 3.24252 54.1792C1.45427 59.6125 5.52685 65.8501 12.3147 68.0842C19.1026 70.3183 26.0838 67.7188 27.872 62.2856L37.3208 33.5774C40.5548 36.2087 45.4236 41.8021 44.3211 50.7586C43.8599 51.1146 43.4023 51.5099 42.9277 51.7905C41.6907 52.5134 41.2769 54.1024 42.0064 55.3362C42.7228 56.5765 44.3151 56.9805 45.5521 56.2575C46.4586 55.726 47.3334 55.0421 48.1965 54.3107C48.2783 54.2612 48.357 54.2052 48.4336 54.1377Z" fill="white"/>
</svg>
