<svg id="Capa_1" enable-background="new 0 0 565.648 565.648" height="512" viewBox="0 0 565.648 565.648" width="512" xmlns="http://www.w3.org/2000/svg"><path d="m472.449 57.835-49.991 49.991c46.746 46.746 72.484 108.924 72.484 175.005 0 66.08-25.738 128.258-72.484 175.005l49.991 49.991c60.107-60.107 93.199-140.031 93.199-224.996s-33.092-164.889-93.199-224.996z"/><path d="m372.467 157.852-49.991 49.991c20.024 20.024 31.055 46.677 31.055 74.987s-11.031 54.963-31.055 74.987l49.991 49.991c33.385-33.385 51.77-77.749 51.77-124.979s-18.385-91.592-51.77-124.977z"/><path d="m88.383 141.412h-88.377l-.006 282.824h88.376l70 60.014c34.656 29.713 78.798 46.045 124.445 46.045h.002v-494.942c-45.65 0-89.792 16.332-124.448 46.047.002 0-69.992 60.012-69.992 60.012z"/></svg>