<svg width="64" height="64" viewBox="0 0 64 64" fill="none" xmlns="http://www.w3.org/2000/svg">
<circle cx="32" cy="32" r="32" fill="#C4C4C4"/>
<path d="M45.2446 17.1921L41.6211 20.8156C45.0094 24.2039 46.875 28.7108 46.875 33.5005C46.875 38.2902 45.0094 42.7971 41.6211 46.1854L45.2446 49.809C49.6014 45.4522 52 39.6591 52 33.5005C52 27.342 49.6014 21.5488 45.2446 17.1921Z" fill="#646464"/>
<path d="M37.9976 24.4417L34.3741 28.0652C35.8255 29.5166 36.6251 31.4485 36.6251 33.5005C36.6251 35.5525 35.8255 37.4844 34.3741 38.9358L37.9976 42.5593C40.4175 40.1394 41.7501 36.9238 41.7501 33.5004C41.7501 30.077 40.4175 26.8615 37.9976 24.4417Z" fill="#646464"/>
<path d="M17.4063 23.25H11.0004L11 43.75H17.4058L22.4796 48.1C24.9916 50.2537 28.1911 51.4375 31.4998 51.4375H31.4999V15.5625C28.1911 15.5625 24.9915 16.7463 22.4795 18.9001C22.4797 18.9001 17.4063 23.25 17.4063 23.25Z" fill="#646464"/>
</svg>
